STARTFONT 2.1
FONT -thai-dbthaitext-medium-i-normal--19-140-100-100-p-58-tis620-0
SIZE 14 100 100
FONTBOUNDINGBOX 26 22 -7 -8
STARTPROPERTIES 25
FOUNDRY "thai"
FAMILY_NAME "dbthaitext"
WEIGHT_NAME "medium"
SLANT "i"
SETWIDTH_NAME "normal"
ADD_STYLE_NAME ""
PIXEL_SIZE 19
POINT_SIZE 140
RESOLUTION_X 100
RESOLUTION_Y 100
SPACING "p"
AVERAGE_WIDTH 58
CHARSET_REGISTRY "tis620"
CHARSET_ENCODING "0"
FONT "-thai-dbthaitext-medium-i-normal--19-140-100-100-p-58-tis620-0"
COPYRIGHT "Typeface (c) The Monotype Corporation plc. Data (c) The Monotype Corporation plc/Type Solutions Inc. 1990-1992. All Rights Reserved"
RAW_PIXELSIZE 1000
RAW_POINTSIZE 723
RAW_ASCENT 736
RAW_DESCENT 415
RAW_AVERAGE_WIDTH 2994
FACE_NAME "DBThaiTextItalic5"
DEFAULT_CHAR 0
FONT_ASCENT 14
FONT_DESCENT 8
ENDPROPERTIES
CHARS 190
STARTCHAR space
ENCODING 32
SWIDTH 257 0
DWIDTH 5 0
BBX 0 0 0 0
BITMAP
ENDCHAR
STARTCHAR exclam
ENCODING 33
SWIDTH 154 0
DWIDTH 3 0
BBX 4 8 0 0
BITMAP
10
30
20
60
40
40
00
80
ENDCHAR
STARTCHAR quotedbl
ENCODING 34
SWIDTH 205 0
DWIDTH 4 0
BBX 4 3 0 5
BITMAP
f0
a0
a0
ENDCHAR
STARTCHAR numbersign
ENCODING 35
SWIDTH 308 0
DWIDTH 6 0
BBX 7 8 0 0
BITMAP
12
12
3e
28
28
fc
90
90
ENDCHAR
STARTCHAR dollar
ENCODING 36
SWIDTH 308 0
DWIDTH 6 0
BBX 7 10 0 -1
BITMAP
08
1c
72
50
30
18
18
a8
f0
20
ENDCHAR
STARTCHAR percent
ENCODING 37
SWIDTH 514 0
DWIDTH 10 0
BBX 8 8 1 0
BITMAP
62
92
b4
c8
12
2d
49
8e
ENDCHAR
STARTCHAR ampersand
ENCODING 38
SWIDTH 411 0
DWIDTH 8 0
BBX 6 8 0 0
BITMAP
1c
14
1c
10
74
98
98
e8
ENDCHAR
STARTCHAR apostrophe
ENCODING 39
SWIDTH 102 0
DWIDTH 2 0
BBX 2 3 0 5
BITMAP
c0
80
80
ENDCHAR
STARTCHAR parenleft
ENCODING 40
SWIDTH 205 0
DWIDTH 4 0
BBX 5 10 0 -2
BITMAP
18
30
20
40
40
c0
80
80
80
80
ENDCHAR
STARTCHAR parenright
ENCODING 41
SWIDTH 205 0
DWIDTH 4 0
BBX 5 10 -1 -2
BITMAP
08
08
08
08
18
10
10
20
20
40
ENDCHAR
STARTCHAR asterisk
ENCODING 42
SWIDTH 257 0
DWIDTH 5 0
BBX 4 3 0 5
BITMAP
70
60
a0
ENDCHAR
STARTCHAR plus
ENCODING 43
SWIDTH 360 0
DWIDTH 7 0
BBX 6 6 0 0
BITMAP
10
10
10
fc
20
20
ENDCHAR
STARTCHAR comma
ENCODING 44
SWIDTH 154 0
DWIDTH 3 0
BBX 2 3 0 -1
BITMAP
40
40
40
ENDCHAR
STARTCHAR minus
ENCODING 45
SWIDTH 205 0
DWIDTH 4 0
BBX 3 1 0 3
BITMAP
e0
ENDCHAR
STARTCHAR period
ENCODING 46
SWIDTH 154 0
DWIDTH 3 0
BBX 2 2 0 0
BITMAP
40
c0
ENDCHAR
STARTCHAR slash
ENCODING 47
SWIDTH 154 0
DWIDTH 3 0
BBX 6 8 -1 0
BITMAP
04
08
08
10
20
20
40
80
ENDCHAR
STARTCHAR 0
ENCODING 48
SWIDTH 308 0
DWIDTH 6 0
BBX 6 7 0 0
BITMAP
3c
6c
4c
cc
c8
d8
f0
ENDCHAR
STARTCHAR 1
ENCODING 49
SWIDTH 308 0
DWIDTH 6 0
BBX 3 7 2 0
BITMAP
20
e0
40
40
40
80
80
ENDCHAR
STARTCHAR 2
ENCODING 50
SWIDTH 308 0
DWIDTH 6 0
BBX 6 7 -1 0
BITMAP
1c
24
04
18
60
40
f0
ENDCHAR
STARTCHAR 3
ENCODING 51
SWIDTH 308 0
DWIDTH 6 0
BBX 6 7 0 0
BITMAP
3c
24
0c
38
08
88
f0
ENDCHAR
STARTCHAR 4
ENCODING 52
SWIDTH 308 0
DWIDTH 6 0
BBX 6 7 -1 0
BITMAP
04
18
28
48
f8
10
10
ENDCHAR
STARTCHAR 5
ENCODING 53
SWIDTH 308 0
DWIDTH 6 0
BBX 6 7 0 0
BITMAP
3c
20
70
48
08
98
e0
ENDCHAR
STARTCHAR 6
ENCODING 54
SWIDTH 308 0
DWIDTH 6 0
BBX 6 7 0 0
BITMAP
1c
64
40
f8
c8
98
f0
ENDCHAR
STARTCHAR 7
ENCODING 55
SWIDTH 308 0
DWIDTH 6 0
BBX 6 7 0 0
BITMAP
7c
08
10
20
20
40
80
ENDCHAR
STARTCHAR 8
ENCODING 56
SWIDTH 308 0
DWIDTH 6 0
BBX 6 7 0 0
BITMAP
1c
24
6c
38
c8
88
f0
ENDCHAR
STARTCHAR 9
ENCODING 57
SWIDTH 308 0
DWIDTH 6 0
BBX 6 7 0 0
BITMAP
3c
64
44
5c
28
98
f0
ENDCHAR
STARTCHAR colon
ENCODING 58
SWIDTH 154 0
DWIDTH 3 0
BBX 3 6 0 0
BITMAP
20
00
00
00
80
80
ENDCHAR
STARTCHAR semicolon
ENCODING 59
SWIDTH 154 0
DWIDTH 3 0
BBX 4 7 -1 -1
BITMAP
30
00
00
00
20
60
40
ENDCHAR
STARTCHAR less
ENCODING 60
SWIDTH 360 0
DWIDTH 7 0
BBX 6 6 1 0
BITMAP
04
1c
60
c0
30
08
ENDCHAR
STARTCHAR equal
ENCODING 61
SWIDTH 360 0
DWIDTH 7 0
BBX 6 3 0 1
BITMAP
7c
00
f8
ENDCHAR
STARTCHAR greater
ENCODING 62
SWIDTH 360 0
DWIDTH 7 0
BBX 6 5 0 1
BITMAP
40
30
08
1c
20
ENDCHAR
STARTCHAR question
ENCODING 63
SWIDTH 308 0
DWIDTH 6 0
BBX 6 8 1 0
BITMAP
7c
cc
08
30
60
40
00
c0
ENDCHAR
STARTCHAR at
ENCODING 64
SWIDTH 617 0
DWIDTH 12 0
BBX 12 10 0 -2
BITMAP
0fe0
1830
2770
4db0
d920
d360
dfc0
c000
6100
3e00
ENDCHAR
STARTCHAR A
ENCODING 65
SWIDTH 411 0
DWIDTH 8 0
BBX 7 8 -1 0
BITMAP
06
0a
0a
12
32
7e
42
c2
ENDCHAR
STARTCHAR B
ENCODING 66
SWIDTH 411 0
DWIDTH 8 0
BBX 8 8 0 0
BITMAP
1f
21
22
3c
42
42
46
f8
ENDCHAR
STARTCHAR C
ENCODING 67
SWIDTH 411 0
DWIDTH 8 0
BBX 8 8 0 0
BITMAP
1f
21
40
c0
80
82
84
78
ENDCHAR
STARTCHAR D
ENCODING 68
SWIDTH 411 0
DWIDTH 8 0
BBX 8 8 0 0
BITMAP
1e
21
21
21
41
42
44
f8
ENDCHAR
STARTCHAR E
ENCODING 69
SWIDTH 411 0
DWIDTH 8 0
BBX 9 8 -1 0
BITMAP
1f80
3000
2000
3e00
4000
4000
4000
fe00
ENDCHAR
STARTCHAR F
ENCODING 70
SWIDTH 360 0
DWIDTH 7 0
BBX 8 8 0 0
BITMAP
1f
20
20
3c
40
40
40
80
ENDCHAR
STARTCHAR G
ENCODING 71
SWIDTH 462 0
DWIDTH 9 0
BBX 9 8 0 0
BITMAP
0f00
3180
4000
c700
c100
c300
c600
7a00
ENDCHAR
STARTCHAR H
ENCODING 72
SWIDTH 411 0
DWIDTH 8 0
BBX 9 8 0 0
BITMAP
2080
2180
2100
7f00
4300
4200
8200
8400
ENDCHAR
STARTCHAR I
ENCODING 73
SWIDTH 154 0
DWIDTH 3 0
BBX 4 8 0 0
BITMAP
10
30
20
20
40
40
40
80
ENDCHAR
STARTCHAR J
ENCODING 74
SWIDTH 308 0
DWIDTH 6 0
BBX 6 8 0 0
BITMAP
04
04
08
08
08
90
b0
c0
ENDCHAR
STARTCHAR K
ENCODING 75
SWIDTH 411 0
DWIDTH 8 0
BBX 9 8 0 0
BITMAP
2180
2600
2800
7800
4800
4800
8400
8400
ENDCHAR
STARTCHAR L
ENCODING 76
SWIDTH 308 0
DWIDTH 6 0
BBX 6 8 -1 0
BITMAP
10
30
20
20
60
40
40
fc
ENDCHAR
STARTCHAR M
ENCODING 77
SWIDTH 514 0
DWIDTH 10 0
BBX 11 8 -1 0
BITMAP
1860
28e0
28c0
69c0
4ac0
5480
d580
9900
ENDCHAR
STARTCHAR N
ENCODING 78
SWIDTH 411 0
DWIDTH 8 0
BBX 9 8 0 0
BITMAP
1080
3180
3900
4900
4900
4e00
8600
8400
ENDCHAR
STARTCHAR O
ENCODING 79
SWIDTH 462 0
DWIDTH 9 0
BBX 9 8 0 0
BITMAP
0f00
3180
4080
c180
c100
8300
c600
7800
ENDCHAR
STARTCHAR P
ENCODING 80
SWIDTH 411 0
DWIDTH 8 0
BBX 8 8 0 0
BITMAP
1f
21
23
3c
40
40
40
80
ENDCHAR
STARTCHAR Q
ENCODING 81
SWIDTH 462 0
DWIDTH 9 0
BBX 9 8 0 0
BITMAP
0f00
3180
4080
c180
c100
8300
ce00
7a00
ENDCHAR
STARTCHAR R
ENCODING 82
SWIDTH 411 0
DWIDTH 8 0
BBX 9 8 0 0
BITMAP
1f80
3180
2180
3e00
4300
4200
4200
8600
ENDCHAR
STARTCHAR S
ENCODING 83
SWIDTH 411 0
DWIDTH 8 0
BBX 8 8 0 0
BITMAP
1e
21
60
3c
06
82
84
78
ENDCHAR
STARTCHAR T
ENCODING 84
SWIDTH 360 0
DWIDTH 7 0
BBX 6 8 2 0
BITMAP
fc
20
20
20
20
40
40
40
ENDCHAR
STARTCHAR U
ENCODING 85
SWIDTH 411 0
DWIDTH 8 0
BBX 9 8 0 0
BITMAP
2080
2180
6100
4300
c200
c200
c600
7800
ENDCHAR
STARTCHAR V
ENCODING 86
SWIDTH 411 0
DWIDTH 8 0
BBX 7 8 2 0
BITMAP
86
84
8c
98
90
a0
e0
c0
ENDCHAR
STARTCHAR W
ENCODING 87
SWIDTH 565 0
DWIDTH 11 0
BBX 11 8 1 0
BITMAP
4460
cc40
ccc0
9480
a500
a700
c600
8400
ENDCHAR
STARTCHAR X
ENCODING 88
SWIDTH 411 0
DWIDTH 8 0
BBX 10 8 -1 0
BITMAP
1880
0900
0a00
0c00
1c00
3400
6600
c200
ENDCHAR
STARTCHAR Y
ENCODING 89
SWIDTH 411 0
DWIDTH 8 0
BBX 8 8 1 0
BITMAP
c3
46
4c
58
20
60
40
40
ENDCHAR
STARTCHAR Z
ENCODING 90
SWIDTH 360 0
DWIDTH 7 0
BBX 9 8 -1 0
BITMAP
1f80
0100
0600
0800
1000
2000
4000
fc00
ENDCHAR
STARTCHAR bracketleft
ENCODING 91
SWIDTH 154 0
DWIDTH 3 0
BBX 6 11 -1 -3
BITMAP
0c
10
10
10
20
20
20
40
40
80
c0
ENDCHAR
STARTCHAR backslash
ENCODING 92
SWIDTH 154 0
DWIDTH 3 0
BBX 1 8 1 0
BITMAP
80
80
80
80
80
80
80
80
ENDCHAR
STARTCHAR bracketright
ENCODING 93
SWIDTH 154 0
DWIDTH 3 0
BBX 6 11 -2 -3
BITMAP
0c
04
08
08
10
10
10
20
20
20
c0
ENDCHAR
STARTCHAR asciicircum
ENCODING 94
SWIDTH 257 0
DWIDTH 5 0
BBX 4 4 0 4
BITMAP
30
50
50
90
ENDCHAR
STARTCHAR underscore
ENCODING 95
SWIDTH 308 0
DWIDTH 6 0
BBX 7 1 0 -2
BITMAP
fe
ENDCHAR
STARTCHAR grave
ENCODING 96
SWIDTH 154 0
DWIDTH 3 0
BBX 3 3 0 2
BITMAP
60
e0
c0
ENDCHAR
STARTCHAR a
ENCODING 97
SWIDTH 308 0
DWIDTH 6 0
BBX 6 6 0 0
BITMAP
3c
44
18
68
98
e8
ENDCHAR
STARTCHAR b
ENCODING 98
SWIDTH 308 0
DWIDTH 6 0
BBX 6 8 0 0
BITMAP
20
20
38
44
44
44
88
70
ENDCHAR
STARTCHAR c
ENCODING 99
SWIDTH 308 0
DWIDTH 6 0
BBX 6 6 0 0
BITMAP
3c
44
c0
80
88
f0
ENDCHAR
STARTCHAR d
ENCODING 100
SWIDTH 308 0
DWIDTH 6 0
BBX 7 8 0 0
BITMAP
02
02
3a
44
84
88
98
68
ENDCHAR
STARTCHAR e
ENCODING 101
SWIDTH 308 0
DWIDTH 6 0
BBX 6 6 0 0
BITMAP
3c
44
fc
80
88
f0
ENDCHAR
STARTCHAR f
ENCODING 102
SWIDTH 154 0
DWIDTH 3 0
BBX 6 8 0 0
BITMAP
1c
20
70
20
40
40
40
80
ENDCHAR
STARTCHAR g
ENCODING 103
SWIDTH 308 0
DWIDTH 6 0
BBX 7 9 0 -3
BITMAP
1e
22
42
44
44
78
08
90
60
ENDCHAR
STARTCHAR h
ENCODING 104
SWIDTH 308 0
DWIDTH 6 0
BBX 6 8 0 0
BITMAP
20
20
3c
44
44
44
48
88
ENDCHAR
STARTCHAR i
ENCODING 105
SWIDTH 154 0
DWIDTH 3 0
BBX 4 8 -1 0
BITMAP
10
00
20
20
40
40
c0
80
ENDCHAR
STARTCHAR j
ENCODING 106
SWIDTH 154 0
DWIDTH 3 0
BBX 6 11 -2 -3
BITMAP
04
00
08
08
10
10
30
20
20
60
c0
ENDCHAR
STARTCHAR k
ENCODING 107
SWIDTH 308 0
DWIDTH 6 0
BBX 6 8 0 0
BITMAP
20
20
28
50
60
90
90
90
ENDCHAR
STARTCHAR l
ENCODING 108
SWIDTH 154 0
DWIDTH 3 0
BBX 4 8 -1 0
BITMAP
10
30
20
20
40
40
40
80
ENDCHAR
STARTCHAR m
ENCODING 109
SWIDTH 514 0
DWIDTH 10 0
BBX 10 6 0 0
BITMAP
3fc0
24c0
44c0
4c80
4980
8980
ENDCHAR
STARTCHAR n
ENCODING 110
SWIDTH 308 0
DWIDTH 6 0
BBX 6 6 0 0
BITMAP
3c
44
44
44
88
88
ENDCHAR
STARTCHAR o
ENCODING 111
SWIDTH 308 0
DWIDTH 6 0
BBX 6 6 0 0
BITMAP
38
44
84
8c
88
70
ENDCHAR
STARTCHAR p
ENCODING 112
SWIDTH 308 0
DWIDTH 6 0
BBX 7 9 -1 -3
BITMAP
1c
22
22
22
44
78
40
80
80
ENDCHAR
STARTCHAR q
ENCODING 113
SWIDTH 308 0
DWIDTH 6 0
BBX 6 9 1 -3
BITMAP
3c
44
84
84
88
70
10
10
10
ENDCHAR
STARTCHAR r
ENCODING 114
SWIDTH 205 0
DWIDTH 4 0
BBX 5 6 0 0
BITMAP
38
20
40
40
40
80
ENDCHAR
STARTCHAR s
ENCODING 115
SWIDTH 308 0
DWIDTH 6 0
BBX 6 6 0 0
BITMAP
3c
64
70
18
88
f0
ENDCHAR
STARTCHAR t
ENCODING 116
SWIDTH 154 0
DWIDTH 3 0
BBX 4 8 0 0
BITMAP
20
20
70
60
40
40
c0
c0
ENDCHAR
STARTCHAR u
ENCODING 117
SWIDTH 308 0
DWIDTH 6 0
BBX 6 6 0 0
BITMAP
44
44
44
88
98
e0
ENDCHAR
STARTCHAR v
ENCODING 118
SWIDTH 308 0
DWIDTH 6 0
BBX 6 6 1 0
BITMAP
8c
88
90
a0
e0
c0
ENDCHAR
STARTCHAR w
ENCODING 119
SWIDTH 411 0
DWIDTH 8 0
BBX 8 6 1 0
BITMAP
91
ba
ba
b4
d4
88
ENDCHAR
STARTCHAR x
ENCODING 120
SWIDTH 308 0
DWIDTH 6 0
BBX 7 6 -1 0
BITMAP
26
1c
10
30
68
c8
ENDCHAR
STARTCHAR y
ENCODING 121
SWIDTH 308 0
DWIDTH 6 0
BBX 8 9 -1 -3
BITMAP
11
12
16
14
18
10
30
60
c0
ENDCHAR
STARTCHAR z
ENCODING 122
SWIDTH 308 0
DWIDTH 6 0
BBX 6 6 0 0
BITMAP
3c
08
10
20
40
f0
ENDCHAR
STARTCHAR braceleft
ENCODING 123
SWIDTH 205 0
DWIDTH 4 0
BBX 6 10 0 -2
BITMAP
1c
10
20
20
40
c0
40
40
80
80
ENDCHAR
STARTCHAR bar
ENCODING 124
SWIDTH 154 0
DWIDTH 3 0
BBX 4 10 0 -2
BITMAP
10
10
10
20
20
20
40
40
40
80
ENDCHAR
STARTCHAR braceright
ENCODING 125
SWIDTH 205 0
DWIDTH 4 0
BBX 5 10 -1 -2
BITMAP
08
08
08
10
18
10
20
20
20
40
ENDCHAR
STARTCHAR asciitilde
ENCODING 126
SWIDTH 360 0
DWIDTH 7 0
BBX 6 2 0 3
BITMAP
64
98
ENDCHAR
STARTCHAR exclamdown
ENCODING 161
SWIDTH 360 0
DWIDTH 7 0
BBX 6 6 0 0
BITMAP
3c
64
44
44
88
88
ENDCHAR
STARTCHAR cent
ENCODING 162
SWIDTH 360 0
DWIDTH 7 0
BBX 6 6 1 0
BITMAP
f4
d4
28
28
48
f0
ENDCHAR
STARTCHAR sterling
ENCODING 163
SWIDTH 411 0
DWIDTH 8 0
BBX 7 6 1 0
BITMAP
7a
b2
d4
14
24
78
ENDCHAR
STARTCHAR currency
ENCODING 164
SWIDTH 360 0
DWIDTH 7 0
BBX 6 7 1 0
BITMAP
38
44
b4
f4
c8
88
88
ENDCHAR
STARTCHAR yen
ENCODING 165
SWIDTH 360 0
DWIDTH 7 0
BBX 6 6 1 0
BITMAP
7c
b4
f4
c8
88
88
ENDCHAR
STARTCHAR brokenbar
ENCODING 166
SWIDTH 462 0
DWIDTH 9 0
BBX 8 6 1 0
BITMAP
79
b1
d2
32
6e
46
ENDCHAR
STARTCHAR section
ENCODING 167
SWIDTH 308 0
DWIDTH 6 0
BBX 5 6 0 0
BITMAP
38
18
90
d0
50
60
ENDCHAR
STARTCHAR diaeresis
ENCODING 168
SWIDTH 360 0
DWIDTH 7 0
BBX 5 6 1 0
BITMAP
f8
68
68
50
10
10
ENDCHAR
STARTCHAR copyright
ENCODING 169
SWIDTH 411 0
DWIDTH 8 0
BBX 7 6 1 0
BITMAP
3c
44
c4
cc
7e
48
ENDCHAR
STARTCHAR ordfeminine
ENCODING 170
SWIDTH 360 0
DWIDTH 7 0
BBX 6 7 1 0
BITMAP
2c
d0
e8
28
28
58
e0
ENDCHAR
STARTCHAR guillemotleft
ENCODING 171
SWIDTH 411 0
DWIDTH 8 0
BBX 8 7 0 0
BITMAP
3b
4c
b4
d4
14
24
78
ENDCHAR
STARTCHAR notsign
ENCODING 172
SWIDTH 462 0
DWIDTH 9 0
BBX 9 6 0 0
BITMAP
7c80
4480
4500
4900
bd00
d200
ENDCHAR
STARTCHAR hyphen
ENCODING 173
SWIDTH 462 0
DWIDTH 9 0
BBX 9 9 1 -3
BITMAP
7c80
4480
4500
4900
a900
de00
0000
3c00
3800
ENDCHAR
STARTCHAR registered
ENCODING 174
SWIDTH 411 0
DWIDTH 8 0
BBX 8 9 0 -3
BITMAP
0f
19
11
22
e2
c2
14
74
ec
ENDCHAR
STARTCHAR macron
ENCODING 175
SWIDTH 411 0
DWIDTH 8 0
BBX 8 9 0 -3
BITMAP
0f
19
11
21
e2
c2
12
6c
fc
ENDCHAR
STARTCHAR degree
ENCODING 176
SWIDTH 308 0
DWIDTH 6 0
BBX 10 10 -1 -4
BITMAP
0fc0
0200
1e00
1e00
0600
0400
0000
2c00
ec00
b000
ENDCHAR
STARTCHAR plusminus
ENCODING 177
SWIDTH 462 0
DWIDTH 9 0
BBX 8 6 1 0
BITMAP
7f
b9
d9
11
22
22
ENDCHAR
STARTCHAR twosuperior
ENCODING 178
SWIDTH 514 0
DWIDTH 10 0
BBX 9 6 1 0
BITMAP
7c80
b480
b500
a500
dd00
9200
ENDCHAR
STARTCHAR threesuperior
ENCODING 179
SWIDTH 462 0
DWIDTH 9 0
BBX 9 6 0 0
BITMAP
7c80
2480
4900
4b00
ae80
cb00
ENDCHAR
STARTCHAR acute
ENCODING 180
SWIDTH 360 0
DWIDTH 7 0
BBX 6 7 1 0
BITMAP
38
44
b4
b4
a8
c8
88
ENDCHAR
STARTCHAR mu
ENCODING 181
SWIDTH 360 0
DWIDTH 7 0
BBX 6 6 1 0
BITMAP
7c
b4
b4
a8
c8
88
ENDCHAR
STARTCHAR paragraph
ENCODING 182
SWIDTH 360 0
DWIDTH 7 0
BBX 6 6 0 0
BITMAP
3c
24
44
44
c8
c8
ENDCHAR
STARTCHAR periodcentered
ENCODING 183
SWIDTH 360 0
DWIDTH 7 0
BBX 6 6 1 0
BITMAP
dc
64
64
c4
88
88
ENDCHAR
STARTCHAR cedilla
ENCODING 184
SWIDTH 308 0
DWIDTH 6 0
BBX 5 6 0 0
BITMAP
30
08
28
28
48
e0
ENDCHAR
STARTCHAR onesuperior
ENCODING 185
SWIDTH 411 0
DWIDTH 8 0
BBX 6 6 1 0
BITMAP
c4
44
48
58
ec
88
ENDCHAR
STARTCHAR masculine
ENCODING 186
SWIDTH 411 0
DWIDTH 8 0
BBX 8 6 0 0
BITMAP
71
61
22
22
44
fc
ENDCHAR
STARTCHAR guillemotright
ENCODING 187
SWIDTH 411 0
DWIDTH 8 0
BBX 8 9 0 0
BITMAP
01
01
22
62
62
22
44
44
f8
ENDCHAR
STARTCHAR onequarter
ENCODING 188
SWIDTH 360 0
DWIDTH 7 0
BBX 7 6 0 0
BITMAP
32
62
54
74
c8
88
ENDCHAR
STARTCHAR onehalf
ENCODING 189
SWIDTH 360 0
DWIDTH 7 0
BBX 8 9 0 0
BITMAP
01
01
12
32
62
52
6c
cc
84
ENDCHAR
STARTCHAR threequarters
ENCODING 190
SWIDTH 411 0
DWIDTH 8 0
BBX 8 6 1 0
BITMAP
e9
75
56
66
44
84
ENDCHAR
STARTCHAR questiondown
ENCODING 191
SWIDTH 411 0
DWIDTH 8 0
BBX 8 9 1 0
BITMAP
01
01
49
ca
5a
6a
6a
84
84
ENDCHAR
STARTCHAR Agrave
ENCODING 192
SWIDTH 411 0
DWIDTH 8 0
BBX 8 6 -1 0
BITMAP
0f
19
33
22
e2
c2
ENDCHAR
STARTCHAR Aacute
ENCODING 193
SWIDTH 411 0
DWIDTH 8 0
BBX 8 6 0 0
BITMAP
71
31
22
72
ac
c4
ENDCHAR
STARTCHAR Acircumflex
ENCODING 194
SWIDTH 360 0
DWIDTH 7 0
BBX 6 6 0 0
BITMAP
34
54
44
84
88
f0
ENDCHAR
STARTCHAR Atilde
ENCODING 195
SWIDTH 308 0
DWIDTH 6 0
BBX 7 6 1 0
BITMAP
fe
10
10
10
70
60
ENDCHAR
STARTCHAR Adiaeresis
ENCODING 196
SWIDTH 360 0
DWIDTH 7 0
BBX 6 9 1 -3
BITMAP
3c
64
44
44
c8
c8
08
10
10
ENDCHAR
STARTCHAR Aring
ENCODING 197
SWIDTH 360 0
DWIDTH 7 0
BBX 6 6 0 0
BITMAP
7c
34
54
98
c8
c8
ENDCHAR
STARTCHAR AE
ENCODING 198
SWIDTH 411 0
DWIDTH 8 0
BBX 8 9 0 -3
BITMAP
0f
19
21
22
e2
c2
04
04
04
ENDCHAR
STARTCHAR Ccedilla
ENCODING 199
SWIDTH 308 0
DWIDTH 6 0
BBX 5 6 1 0
BITMAP
f8
08
08
10
70
60
ENDCHAR
STARTCHAR Egrave
ENCODING 200
SWIDTH 360 0
DWIDTH 7 0
BBX 7 7 1 0
BITMAP
3a
44
bc
f4
88
88
88
ENDCHAR
STARTCHAR Eacute
ENCODING 201
SWIDTH 411 0
DWIDTH 8 0
BBX 8 6 0 0
BITMAP
62
6b
37
4c
44
f8
ENDCHAR
STARTCHAR Ecircumflex
ENCODING 202
SWIDTH 360 0
DWIDTH 7 0
BBX 6 7 1 0
BITMAP
04
7c
24
d8
98
c8
c8
ENDCHAR
STARTCHAR Ediaeresis
ENCODING 203
SWIDTH 411 0
DWIDTH 8 0
BBX 6 6 1 0
BITMAP
cc
48
74
e4
88
88
ENDCHAR
STARTCHAR Igrave
ENCODING 204
SWIDTH 411 0
DWIDTH 8 0
BBX 9 8 1 0
BITMAP
0100
4380
aa00
5a00
5a00
6c00
c400
8400
ENDCHAR
STARTCHAR Iacute
ENCODING 205
SWIDTH 360 0
DWIDTH 7 0
BBX 6 6 0 0
BITMAP
3c
24
64
44
88
f0
ENDCHAR
STARTCHAR Icircumflex
ENCODING 206
SWIDTH 360 0
DWIDTH 7 0
BBX 8 7 0 0
BITMAP
02
7d
3c
68
48
88
f0
ENDCHAR
STARTCHAR Idiaeresis
ENCODING 207
SWIDTH 308 0
DWIDTH 6 0
BBX 6 6 1 0
BITMAP
64
ec
d8
f8
70
40
ENDCHAR
STARTCHAR ETH
ENCODING 208
SWIDTH 257 0
DWIDTH 5 0
BBX 6 6 0 0
BITMAP
7c
30
00
00
f0
e0
ENDCHAR
STARTCHAR Ntilde
ENCODING 209
SWIDTH 0 0
DWIDTH 0 0
BBX 6 3 -4 8
BITMAP
40
ac
f0
ENDCHAR
STARTCHAR Ograve
ENCODING 210
SWIDTH 308 0
DWIDTH 6 0
BBX 4 6 1 0
BITMAP
70
10
10
10
20
20
ENDCHAR
STARTCHAR Oacute
ENCODING 211
SWIDTH 308 0
DWIDTH 6 0
BBX 6 10 -1 0
BITMAP
e0
e0
00
00
3c
04
04
08
08
08
ENDCHAR
STARTCHAR Ocircumflex
ENCODING 212
SWIDTH 0 0
DWIDTH 0 0
BBX 6 2 -7 8
BITMAP
7c
fc
ENDCHAR
STARTCHAR Otilde
ENCODING 213
SWIDTH 51 0
DWIDTH 1 0
BBX 6 3 -6 8
BITMAP
04
78
f8
ENDCHAR
STARTCHAR Odiaeresis
ENCODING 214
SWIDTH 0 0
DWIDTH 0 0
BBX 7 3 -7 8
BITMAP
1e
68
f8
ENDCHAR
STARTCHAR multiply
ENCODING 215
SWIDTH 51 0
DWIDTH 1 0
BBX 6 3 -6 8
BITMAP
1c
68
f8
ENDCHAR
STARTCHAR Ooblique
ENCODING 216
SWIDTH 0 0
DWIDTH 0 0
BBX 3 4 -3 -5
BITMAP
e0
e0
40
40
ENDCHAR
STARTCHAR Ugrave
ENCODING 217
SWIDTH 0 0
DWIDTH 0 0
BBX 5 4 -5 -5
BITMAP
e8
f0
50
70
ENDCHAR
STARTCHAR Uacute
ENCODING 218
SWIDTH 0 0
DWIDTH 0 0
BBX 1 1 -2 -2
BITMAP
80
ENDCHAR
STARTCHAR Ucircumflex
ENCODING 219
SWIDTH 0 0
DWIDTH 0 0
BBX 1 1 -2 -5
BITMAP
80
ENDCHAR
STARTCHAR Udiaeresis
ENCODING 220
SWIDTH 0 0
DWIDTH 0 0
BBX 1 1 0 0
BITMAP
00
ENDCHAR
STARTCHAR Yacute
ENCODING 221
SWIDTH 0 0
DWIDTH 0 0
BBX 1 1 0 0
BITMAP
00
ENDCHAR
STARTCHAR THORN
ENCODING 222
SWIDTH 0 0
DWIDTH 0 0
BBX 1 1 0 0
BITMAP
00
ENDCHAR
STARTCHAR ssharp
ENCODING 223
SWIDTH 0 0
DWIDTH 0 0
BBX 1 1 0 0
BITMAP
00
ENDCHAR
STARTCHAR agrave
ENCODING 224
SWIDTH 205 0
DWIDTH 4 0
BBX 3 6 0 0
BITMAP
20
20
40
40
a0
c0
ENDCHAR
STARTCHAR aacute
ENCODING 225
SWIDTH 360 0
DWIDTH 7 0
BBX 6 6 0 0
BITMAP
24
44
48
48
b4
d8
ENDCHAR
STARTCHAR acircumflex
ENCODING 226
SWIDTH 205 0
DWIDTH 4 0
BBX 6 12 0 0
BITMAP
3c
20
10
20
20
20
40
40
40
40
a0
c0
ENDCHAR
STARTCHAR atilde
ENCODING 227
SWIDTH 205 0
DWIDTH 4 0
BBX 4 12 0 0
BITMAP
30
70
50
20
20
20
20
40
40
40
c0
c0
ENDCHAR
STARTCHAR adiaeresis
ENCODING 228
SWIDTH 257 0
DWIDTH 5 0
BBX 4 12 1 0
BITMAP
50
70
70
60
20
20
40
40
40
40
c0
c0
ENDCHAR
STARTCHAR aring
ENCODING 229
SWIDTH 308 0
DWIDTH 6 0
BBX 4 9 2 -3
BITMAP
70
10
10
10
20
20
20
40
40
ENDCHAR
STARTCHAR ae
ENCODING 230
SWIDTH 411 0
DWIDTH 8 0
BBX 5 9 3 -3
BITMAP
78
c8
e8
10
10
10
20
60
80
ENDCHAR
STARTCHAR ccedilla
ENCODING 231
SWIDTH 0 0
DWIDTH 0 0
BBX 6 3 -6 8
BITMAP
78
98
f8
ENDCHAR
STARTCHAR egrave
ENCODING 232
SWIDTH 0 0
DWIDTH 0 0
BBX 1 2 -2 12
BITMAP
80
80
ENDCHAR
STARTCHAR eacute
ENCODING 233
SWIDTH 0 0
DWIDTH 0 0
BBX 5 3 -4 11
BITMAP
e8
f0
c0
ENDCHAR
STARTCHAR ecircumflex
ENCODING 234
SWIDTH 0 0
DWIDTH 0 0
BBX 5 2 -5 12
BITMAP
f8
d8
ENDCHAR
STARTCHAR ediaeresis
ENCODING 235
SWIDTH 0 0
DWIDTH 0 0
BBX 3 2 -3 12
BITMAP
40
e0
ENDCHAR
STARTCHAR igrave
ENCODING 236
SWIDTH 0 0
DWIDTH 0 0
BBX 4 3 -3 11
BITMAP
70
c0
c0
ENDCHAR
STARTCHAR iacute
ENCODING 237
SWIDTH 0 0
DWIDTH 0 0
BBX 3 3 -4 7
BITMAP
60
e0
40
ENDCHAR
STARTCHAR icircumflex
ENCODING 238
SWIDTH 0 0
DWIDTH 0 0
BBX 2 3 -3 9
BITMAP
40
c0
40
ENDCHAR
STARTCHAR idiaeresis
ENCODING 239
SWIDTH 360 0
DWIDTH 7 0
BBX 6 6 0 0
BITMAP
3c
74
f4
f4
e4
60
ENDCHAR
STARTCHAR eth
ENCODING 240
SWIDTH 360 0
DWIDTH 7 0
BBX 6 5 0 0
BITMAP
38
44
84
88
70
ENDCHAR
STARTCHAR ntilde
ENCODING 241
SWIDTH 360 0
DWIDTH 7 0
BBX 6 5 1 0
BITMAP
38
44
b4
b4
68
ENDCHAR
STARTCHAR ograve
ENCODING 242
SWIDTH 411 0
DWIDTH 8 0
BBX 7 7 0 0
BITMAP
40
40
5e
76
b2
a2
fc
ENDCHAR
STARTCHAR oacute
ENCODING 243
SWIDTH 411 0
DWIDTH 8 0
BBX 7 5 1 0
BITMAP
2c
d2
92
d4
94
ENDCHAR
STARTCHAR ocircumflex
ENCODING 244
SWIDTH 411 0
DWIDTH 8 0
BBX 9 8 0 0
BITMAP
0080
0080
0100
3e00
5000
a800
b000
7c00
ENDCHAR
STARTCHAR otilde
ENCODING 245
SWIDTH 411 0
DWIDTH 8 0
BBX 9 8 0 0
BITMAP
0080
0880
1500
3e00
5000
a800
b000
7c00
ENDCHAR
STARTCHAR odiaeresis
ENCODING 246
SWIDTH 308 0
DWIDTH 6 0
BBX 6 7 0 0
BITMAP
60
60
7c
0c
6c
e8
f0
ENDCHAR
STARTCHAR division
ENCODING 247
SWIDTH 411 0
DWIDTH 8 0
BBX 9 7 0 0
BITMAP
0080
0080
2d00
5500
8600
ee00
c800
ENDCHAR
STARTCHAR oslash
ENCODING 248
SWIDTH 411 0
DWIDTH 8 0
BBX 8 7 0 0
BITMAP
01
01
7e
c4
ac
ec
98
ENDCHAR
STARTCHAR ugrave
ENCODING 249
SWIDTH 360 0
DWIDTH 7 0
BBX 8 7 0 0
BITMAP
01
01
36
48
88
f8
ec
ENDCHAR
STARTCHAR uacute
ENCODING 250
SWIDTH 977 0
DWIDTH 19 0
BBX 19 1 0 3
BITMAP
ffffe0
ENDCHAR
STARTCHAR ucircumflex
ENCODING 251
SWIDTH 514 0
DWIDTH 10 0
BBX 9 1 0 3
BITMAP
ff80
ENDCHAR
STARTCHAR udiaeresis
ENCODING 252
SWIDTH 0 0
DWIDTH 0 0
BBX 3 4 -3 -8
BITMAP
e0
e0
40
40
ENDCHAR
STARTCHAR yacute
ENCODING 253
SWIDTH 0 0
DWIDTH 0 0
BBX 5 4 -5 -8
BITMAP
e8
f0
50
70
ENDCHAR
STARTCHAR thorn
ENCODING 254
SWIDTH 462 0
DWIDTH 9 0
BBX 8 8 1 0
BITMAP
0e
41
5d
9d
99
9a
86
78
ENDCHAR
STARTCHAR ydiaeresis
ENCODING 255
SWIDTH 0 0
DWIDTH 0 0
BBX 1 1 0 0
BITMAP
00
ENDCHAR
ENDFONT
